<?xml version="1.0" encoding="UTF-8" standalone="no"?>
<!DOCTYPE svg PUBLIC "-//W3C//DTD SVG 20010904//EN"
              "http://www.w3.org/TR/2001/REC-SVG-20010904/DTD/svg10.dtd">

<svg xmlns="http://www.w3.org/2000/svg"
     width="1.33333in" height="1.33333in"
     viewBox="0 0 400 400">
  <path id="Path"
        fill="#c0c0c0" stroke="none" stroke-width="1"
        d="M 174.06,194.81
           C 177.85,194.72 181.69,194.34 185.58,193.66
             189.46,192.97 193.20,191.90 196.80,190.44
             200.40,188.98 203.78,187.09 206.94,184.75
             210.09,182.42 212.84,179.58 215.17,176.23
             217.50,172.88 219.35,168.97 220.70,164.50
             222.07,160.02 222.75,154.87 222.75,149.03
             222.75,143.59 222.41,138.69 221.73,134.31
             221.05,129.94 219.86,126.27 218.16,123.31
             216.46,120.34 214.10,118.06 211.09,116.45
             208.08,114.85 204.19,114.05 199.42,114.05
             194.86,114.05 190.24,114.95 185.58,116.75
             180.91,118.55 176.32,120.81 171.80,123.53
             167.29,126.25 162.96,129.17 158.83,132.28
             154.70,135.39 150.89,138.20 147.39,140.73
             147.39,140.73 142.86,140.73 142.86,140.73
             142.86,140.73 138.34,109.97 138.34,109.97
             140.77,108.90 143.80,107.51 147.45,105.81
             151.10,104.12 155.27,102.49 159.98,100.94
             164.70,99.38 169.88,98.06 175.52,97.00
             181.15,95.93 187.18,95.39 193.59,95.39
             203.51,95.39 212.74,96.61 221.30,99.05
             229.85,101.48 237.23,105.07 243.45,109.83
             249.67,114.59 254.58,120.50 258.17,127.55
             261.77,134.59 263.58,142.73 263.58,151.95
             263.58,160.89 261.88,168.98 258.47,176.23
             255.06,183.48 250.42,189.74 244.55,195.03
             238.67,200.32 231.77,204.60 223.84,207.86
             215.93,211.12 207.49,213.23 198.55,214.20
             198.55,214.20 191.70,242.19 191.70,242.19
             191.70,242.19 174.06,242.19 174.06,242.19
             174.06,242.19 174.06,194.81 174.06,194.81 Z
           M 184.41,307.36
           C 180.91,307.36 177.61,306.72 174.50,305.45
             171.38,304.19 168.69,302.42 166.41,300.14
             164.12,297.86 162.33,295.23 161.02,292.27
             159.70,289.30 159.05,286.12 159.05,282.72
             159.05,279.22 159.70,275.96 161.02,272.95
             162.33,269.95 164.12,267.30 166.41,265.02
             168.69,262.73 171.38,260.92 174.50,259.61
             177.61,258.30 180.91,257.64 184.41,257.64
             187.91,257.64 191.19,258.30 194.25,259.61
             197.31,260.92 199.98,262.73 202.27,265.02
             204.55,267.30 206.36,269.95 207.67,272.95
             208.98,275.96 209.64,279.22 209.64,282.72
             209.64,286.22 208.98,289.45 207.67,292.42
             206.36,295.38 204.55,297.98 202.27,300.22
             199.98,302.45 197.31,304.19 194.25,305.45
             191.19,306.72 187.91,307.36 184.41,307.36 Z" />
</svg>
